<svg width="40" height="40" viewBox="0 0 40 40" fill="none" xmlns="http://www.w3.org/2000/svg">
<path fill-rule="evenodd" clip-rule="evenodd" d="M31.0563 20.1281C31.0563 26.1636 26.1636 31.0563 20.1281 31.0563C14.0927 31.0563 9.20001 26.1636 9.20001 20.1281C9.20001 14.0927 14.0927 9.2 20.1281 9.2C26.1636 9.2 31.0563 14.0927 31.0563 20.1281ZM21.1754 16.7749C19.298 17.5858 13.8847 19.8888 13.8847 19.8888C12.6018 20.4078 13.3528 20.8943 13.3528 20.8943C13.3528 20.8943 14.4479 21.2836 15.3867 21.5755C16.3254 21.8674 16.826 21.5431 16.826 21.5431C16.826 21.5431 19.0163 20.051 21.2379 18.4616C22.8025 17.3587 22.427 18.267 22.0515 18.6562C21.2379 19.4996 19.8925 20.8295 18.766 21.8999C18.2654 22.354 18.5157 22.7432 18.7347 22.9378C19.3718 23.4966 20.8721 24.5128 21.5533 24.9742C21.7421 25.102 21.8679 25.1873 21.8951 25.2084C22.0515 25.3382 22.9277 25.922 23.4596 25.7922C23.9915 25.6625 24.0541 24.9164 24.0541 24.9164C24.0541 24.9164 24.4609 22.2567 24.8364 19.8239C24.9059 19.3463 24.9755 18.8786 25.0403 18.4426C25.2089 17.3092 25.3457 16.3892 25.3683 16.0613C25.4622 14.9584 24.3357 15.4125 24.3357 15.4125C24.3357 15.4125 21.8951 16.4505 21.1754 16.7749Z" fill="white" style="fill:white;fill:white;fill-opacity:1;"/>
</svg>
